<svg xmlns="http://www.w3.org/2000/svg" width="10" height="7" viewBox="0 0 10 7">
  <g id="Iconly_Bold_Hide" data-name="Iconly/Bold/Hide" transform="translate(-2 -3.5)">
    <g id="Hide" transform="translate(2 3.5)">
      <path id="Path_1" data-name="Path 1" d="M8.585.088a.423.423,0,0,1,.517,0,.265.265,0,0,1,0,.43h0l-.888.738A6.234,6.234,0,0,1,9.971,3.38a.259.259,0,0,1,0,.239A5.619,5.619,0,0,1,5,6.846h0a5.2,5.2,0,0,1-2.639-.722h0l-.946.786A.4.4,0,0,1,1.15,7a.393.393,0,0,1-.259-.089A.264.264,0,0,1,.848,6.53h0l.015-.016,7.216-6A.116.116,0,0,0,8.1.494.116.116,0,0,0,8.127.469h0ZM5,.159a5.209,5.209,0,0,1,2,.4H7L5.371,1.91A2.728,2.728,0,0,0,5,1.882,1.809,1.809,0,0,0,3.049,3.5a1.582,1.582,0,0,0,.034.308h0l-1.805,1.5A6.441,6.441,0,0,1,.029,3.621a.259.259,0,0,1,0-.239A5.614,5.614,0,0,1,5,.159H5ZM6.609,2.589l-.532.442a.874.874,0,0,1,.137.47A1.13,1.13,0,0,1,5,4.511,1.415,1.415,0,0,1,4.433,4.4h0L3.9,4.839a2.264,2.264,0,0,0,1.1.28A1.807,1.807,0,0,0,6.946,3.5a1.452,1.452,0,0,0-.337-.912Z" transform="translate(0 0)"/>
    </g>
  </g>
</svg>
