<?xml version="1.0" encoding="utf-8"?>
<!-- Svg Vector Icons : http://www.onlinewebfonts.com/icon -->
<!DOCTYPE svg PUBLIC "-//W3C//DTD SVG 1.1//EN" "http://www.w3.org/Graphics/SVG/1.1/DTD/svg11.dtd">
<svg version="1.1" xmlns="http://www.w3.org/2000/svg" xmlns:xlink="http://www.w3.org/1999/xlink" x="0px" y="0px" viewBox="0 0 1000 1000" enable-background="new 0 0 1000 1000" xml:space="preserve">
<metadata> Svg Vector Icons : http://www.onlinewebfonts.com/icon </metadata>
<g><path d="M867.5,10h-735c-28.7,0-51.9,25.1-51.9,56V934c0,30.9,23.2,56,51.9,56h735c28.6,0,51.9-25.1,51.9-56V66C919.4,35.1,896.2,10,867.5,10z M879.1,934c0,9.2-6.1,15.7-11.5,15.7h-735c-5.5,0-11.5-6.4-11.5-15.7V66c0-9.2,6.1-15.7,11.5-15.7h735c5.5,0,11.5,6.4,11.5,15.7V934z"/><path d="M324.5,156.8L263.3,218l-37.5-37.5c-5.9-5.9-15.5-5.9-21.4,0.1c-5.9,5.9-6,15.5-0.1,21.4l44.6,44.6c1,1,2.1,1.8,3.2,2.4c0.2,0.3,0.5,0.6,0.7,0.9c5.9,5.9,17.9,3.6,26.6-5.2l66.5-66.5c8.8-8.8,11.1-20.7,5.2-26.6C345.2,145.7,333.3,148,324.5,156.8z"/><path d="M784.8,187.6H422.1c-8.5,0-15.3,5.5-15.3,12.3v17.4c0,6.8,6.9,12.3,15.3,12.3h362.7c8.5,0,15.3-5.5,15.3-12.3v-17.4C800.1,193.1,793.3,187.6,784.8,187.6z"/><path d="M324.5,364.1l-61.3,61.3l-37.5-37.5c-5.9-5.9-15.5-5.9-21.4,0.1c-5.9,5.9-6,15.5-0.1,21.4l44.6,44.6c1,1,2.1,1.8,3.2,2.4c0.2,0.3,0.5,0.6,0.7,0.9c5.9,5.9,17.9,3.6,26.6-5.2l66.5-66.5c8.8-8.8,11.1-20.7,5.2-26.6C345.2,353,333.3,355.3,324.5,364.1z"/><path d="M784.8,395H422.1c-8.5,0-15.3,5.5-15.3,12.3v17.4c0,6.8,6.9,12.3,15.3,12.3h362.7c8.5,0,15.3-5.5,15.3-12.3v-17.4C800.1,400.5,793.3,395,784.8,395z"/><path d="M324.5,563.6l-61.3,61.3l-37.5-37.5c-5.9-5.9-15.5-5.9-21.4,0.1c-5.9,5.9-6,15.5-0.1,21.4l44.6,44.6c1,1,2.1,1.8,3.2,2.4c0.2,0.3,0.5,0.6,0.7,0.9c5.9,5.9,17.9,3.6,26.6-5.2l66.5-66.5c8.8-8.8,11.1-20.7,5.2-26.6C345.2,552.5,333.3,554.8,324.5,563.6z"/><path d="M784.8,594.5H422.1c-8.5,0-15.3,5.5-15.3,12.3v17.4c0,6.8,6.9,12.3,15.3,12.3h362.7c8.5,0,15.3-5.5,15.3-12.3v-17.4C800.1,600,793.3,594.5,784.8,594.5z"/><path d="M324.5,763.1l-61.3,61.3l-37.5-37.5c-5.9-5.9-15.5-5.9-21.4,0.1c-5.9,5.9-6,15.5-0.1,21.4l44.6,44.6c1,1,2.1,1.8,3.2,2.4c0.2,0.3,0.5,0.6,0.7,0.9c5.9,5.9,17.9,3.6,26.6-5.2l66.5-66.5c8.8-8.8,11.1-20.7,5.2-26.6C345.2,752,333.3,754.3,324.5,763.1z"/><path d="M784.8,794H422.1c-8.5,0-15.3,5.5-15.3,12.3v17.4c0,6.8,6.9,12.3,15.3,12.3h362.7c8.5,0,15.3-5.5,15.3-12.3v-17.4C800.1,799.5,793.3,794,784.8,794z"/></g>
</svg>