<svg xmlns="http://www.w3.org/2000/svg" width="10" height="7" viewBox="0 0 10 7">
  <g id="Icons1" transform="translate(-13.998 -8)">
    <g id="eye">
      <path id="Path_5" data-name="Path 5" d="M13.281,13.926c2.208.029,4.019,1.875,4.926,3.463a8.426,8.426,0,0,1-.619,1q-.217.282-.457.549-.171.189-.355.369a5.009,5.009,0,0,1-4.322,1.555,6.638,6.638,0,0,1-4.248-3.39,8.347,8.347,0,0,1,.622-1q.2-.261.425-.508.17-.189.353-.369A5.246,5.246,0,0,1,13.281,13.926Zm-.008.777a4.393,4.393,0,0,0-3.061,1.427q-.165.162-.319.333-.2.225-.387.463a5.25,5.25,0,0,0-.349.529A5.577,5.577,0,0,0,12.619,20.1a4.13,4.13,0,0,0,3.552-1.329q.166-.162.32-.333.219-.243.418-.5a5.374,5.374,0,0,0,.348-.529C16.431,16.117,15.017,14.728,13.274,14.7Z" transform="translate(5.791 -5.926)" fill-rule="evenodd"/>
      <path id="Path_6" data-name="Path 6" d="M25.641,23.948a1.5,1.5,0,1,1-1.5,1.5A1.5,1.5,0,0,1,25.641,23.948Zm0,.75a.75.75,0,1,1-.75.75A.75.75,0,0,1,25.641,24.7Z" transform="translate(-6.643 -13.948)" fill-rule="evenodd"/>
    </g>
  </g>
</svg>
