<svg xmlns="http://www.w3.org/2000/svg" width="252.072" height="241.95" viewBox="0 0 252.072 241.95">
  <g id="Group_937" data-name="Group 937" transform="translate(2658 3781)">
    <g id="warning-sign-9759_1_" data-name="warning-sign-9759(1)" transform="translate(-2531.964 -3660.025)">
      <g id="Group_936" data-name="Group 936" transform="translate(-126.036 -126.036)">
        <path id="Path_557" data-name="Path 557" d="M126.036,179.929a13.346,13.346,0,0,1-13.349-12.6L105.54,98.347a20.567,20.567,0,1,1,41.007-.157l-7.162,69.143A13.346,13.346,0,0,1,126.036,179.929Zm0-92.645A9.367,9.367,0,0,0,116.7,97.35l7.173,69.3a2.167,2.167,0,0,0,4.33,0l.025-.33,7.164-69.127a9.373,9.373,0,0,0-9.352-9.909Z" fill="#095ba4"/>
        <path id="Path_558" data-name="Path 558" d="M126.036,224.507a17.981,17.981,0,1,1,17.981-17.981A18,18,0,0,1,126.036,224.507Zm0-24.759a6.778,6.778,0,1,0,6.778,6.778A6.787,6.787,0,0,0,126.036,199.747Z" fill="#095ba4"/>
        <path id="Path_559" data-name="Path 559" d="M235.368,247.011H16.707A16.687,16.687,0,0,1,1.927,222.58L111.256,14a16.691,16.691,0,0,1,29.562,0L250.145,222.58a16.687,16.687,0,0,1-14.777,24.431ZM126.036,16.261a5.364,5.364,0,0,0-4.857,2.938L11.847,227.781a5.484,5.484,0,0,0,4.859,8.027H235.368a5.482,5.482,0,0,0,4.857-8.027L130.893,19.2A5.362,5.362,0,0,0,126.036,16.261Z" fill="#095ba4"/>
      </g>
    </g>
  </g>
</svg>
